<?xml version="1.0" encoding="utf-8"?>
<!-- Generator: Adobe Illustrator 24.0.2, SVG Export Plug-In . SVG Version: 6.00 Build 0)  -->
<svg version="1.1" id="Capa_1" xmlns="http://www.w3.org/2000/svg" xmlns:xlink="http://www.w3.org/1999/xlink" x="0px" y="0px"
	 viewBox="0 0 34.3 17.1" style="enable-background:new 0 0 34.3 17.1;" xml:space="preserve">
<style type="text/css">
	.st0{fill:#8EAC80;}
</style>
<g>
	<path class="st0" d="M8.9,16.2L8.9,16.2c-0.2,0-0.3,0-0.3,0S8.4,16.1,8.4,16c-0.1-0.1-0.1-0.1-0.2-0.2S8.1,15.7,8,15.6
		s-0.1-0.2-0.1-0.2s-0.1-0.1-0.2-0.3l-1.3-2.5c0.5-0.2,0.8-0.5,1.1-0.9c0.2-0.4,0.3-0.8,0.3-1.2c0-0.3-0.1-0.7-0.2-1
		C7.4,9.2,7.2,8.9,6.9,8.7s-0.6-0.4-1-0.6C5.5,8,5.1,7.9,4.6,7.9H0.2C0.1,7.9,0,8,0,8.1v0.4c0,0.1,0.1,0.2,0.2,0.2h0
		c0.6,0,0.9,0.4,0.9,1.1v5.3c0,0.7-0.3,1.1-0.8,1.1H0.2c-0.1,0-0.2,0.1-0.2,0.2v0.4c0,0.1,0.1,0.2,0.2,0.2h3.7
		c0.1,0,0.2-0.1,0.2-0.2v-0.4c0-0.1-0.1-0.2-0.2-0.2H3.8c-0.5,0-0.8-0.4-0.8-1.1v-2h0.9c0.3,0,0.5,0,0.8,0l1.1,2
		c0.1,0.2,0.2,0.4,0.2,0.6c0,0.2-0.1,0.3-0.2,0.4s-0.2,0.2-0.4,0.2H5.3c-0.1,0-0.2,0.1-0.2,0.2v0.4c0,0.1,0.1,0.2,0.2,0.2h3.7
		c0.1,0,0.2-0.1,0.2-0.2v-0.4C9.1,16.3,9.1,16.2,8.9,16.2z M5.4,11.8c-0.4,0.3-1,0.5-1.7,0.5H3V8.6h1.1c0.6,0,1.1,0.2,1.4,0.5
		S6,9.9,6,10.5S5.8,11.5,5.4,11.8z"/>
	<path class="st0" d="M15.8,15.9c-0.1,0-0.3-0.1-0.3-0.1c-0.1-0.1-0.2-0.2-0.2-0.3c0-0.1-0.1-0.2-0.1-0.4s0-0.3,0-0.4v-3.9
		c0,0,0,0,0,0l0,0c0,0,0,0-0.1,0c0,0,0,0-0.1,0.1c-0.1,0-0.1,0.1-0.1,0.1c0,0-0.1,0-0.1,0.1s-0.1,0.1-0.2,0.1s-0.1,0.1-0.2,0.1
		c-0.1,0-0.1,0.1-0.2,0.1s-0.2,0.1-0.3,0.1c-0.5-0.4-1.2-0.6-1.9-0.6c-0.4,0-0.7,0.1-1.1,0.2s-0.6,0.3-0.9,0.5
		c-0.3,0.2-0.5,0.6-0.6,1s-0.2,0.9-0.2,1.4c0,0.5,0.1,0.9,0.2,1.2c0.1,0.4,0.3,0.7,0.4,0.9c0.2,0.2,0.4,0.4,0.6,0.6s0.5,0.3,0.7,0.4
		c0.2,0.1,0.5,0.1,0.7,0.1c0.3,0,0.5,0,0.8-0.1c0.2-0.1,0.4-0.2,0.6-0.3s0.2-0.2,0.3-0.4c0.1-0.1,0.1-0.2,0.2-0.3L13.4,17
		c0,0,0,0,0,0h0c0,0,0.1,0,0.1,0c0.2-0.1,0.4-0.2,0.6-0.2c0.1-0.1,0.4-0.1,0.6-0.2s0.6-0.1,1-0.1c0.1,0,0.2-0.1,0.2-0.2V16
		C16,15.9,15.9,15.9,15.8,15.9z M13.5,15.2L13.5,15.2c-0.1,0.1-0.1,0.2-0.2,0.3s-0.1,0.2-0.2,0.2s-0.2,0.1-0.3,0.2
		C12.6,16,12.5,16,12.3,16c-0.5,0-0.9-0.2-1.2-0.7s-0.5-1.1-0.5-1.8c0-0.2,0-0.4,0-0.6c0-0.2,0.1-0.4,0.1-0.5
		c0.1-0.2,0.2-0.3,0.3-0.4c0.1-0.1,0.2-0.2,0.4-0.3s0.4-0.1,0.6-0.1s0.4,0,0.6,0.1c0.2,0.1,0.3,0.2,0.4,0.3c0.1,0.1,0.2,0.3,0.2,0.4
		c0.1,0.1,0.1,0.3,0.1,0.4V15.2z"/>
	<path class="st0" d="M28.4,16.2L28.4,16.2c-0.3,0-0.6-0.1-0.7-0.3c-0.2-0.2-0.2-0.5-0.2-0.8v-2c0-0.3,0-0.5,0-0.7s-0.1-0.4-0.2-0.6
		c-0.1-0.2-0.2-0.4-0.4-0.5c-0.1-0.1-0.3-0.3-0.6-0.3s-0.5-0.1-0.9-0.1c-0.8,0-1.5,0.5-2.1,1.4l0.2-1.6c0,0,0,0,0,0h0c0,0,0,0-0.1,0
		c-0.2,0.1-0.5,0.3-1,0.5s-0.9,0.3-1.4,0.4c-0.1,0-0.2,0.1-0.2,0.2V12c0,0.1,0,0.1,0.1,0.2c0.2,0,0.3,0.1,0.4,0.1s0.2,0.2,0.2,0.3
		s0.1,0.3,0.1,0.4s0,0.3,0,0.5v1.5c0,0.3-0.1,0.6-0.2,0.8s-0.4,0.3-0.6,0.3h0c-0.1,0-0.2,0.1-0.2,0.2v0.4c0,0.1,0.1,0.2,0.2,0.2h3.5
		c0.1,0,0.2-0.1,0.2-0.2v-0.4c0-0.1-0.1-0.2-0.2-0.2h0c-0.3,0-0.5-0.1-0.7-0.3s-0.2-0.5-0.2-0.8v-2.2c0.1-0.3,0.3-0.5,0.6-0.7
		s0.6-0.3,0.9-0.3c0.1,0,0.2,0,0.3,0s0.2,0.1,0.2,0.1s0.1,0.1,0.2,0.2s0.1,0.1,0.1,0.2s0,0.1,0,0.3s0,0.2,0,0.3s0,0.2,0,0.3
		c0,0,0,0.1,0,0.1v1.8c0,0,0,0,0,0.1c0,0.3,0,0.6-0.1,0.8c-0.1,0.2-0.3,0.3-0.5,0.3c-0.1,0-0.2,0.1-0.2,0.2v0.4
		c0,0.1,0.1,0.2,0.2,0.2h3.3c0.1,0,0.2-0.1,0.2-0.2v-0.4C28.6,16.3,28.5,16.2,28.4,16.2z"/>
	<path class="st0" d="M34.3,14.9c-0.1-0.6-0.5-1.1-1.2-1.4c-0.3-0.1-0.7-0.3-1.4-0.4c-0.2-0.1-0.4-0.1-0.5-0.1
		c-0.1,0-0.3-0.1-0.4-0.2c-0.1-0.1-0.2-0.2-0.3-0.3s-0.1-0.2-0.1-0.3c0-0.2,0.1-0.4,0.2-0.5c0.2-0.1,0.4-0.1,0.6-0.1
		c0.3,0,0.7,0.1,1.1,0.3s0.7,0.5,1.1,0.9c0,0.1,0.1,0.1,0.1,0.1c0,0,0,0,0.1,0l0.3-0.2c0.1,0,0.1-0.1,0.1-0.1c0,0,0-0.1,0-0.1
		l-0.6-1.5c0-0.1-0.1-0.1-0.2-0.1h-0.3c-0.1,0-0.1,0-0.1,0.1c0,0,0,0,0,0.1c0,0.2,0,0.3,0,0.3c0,0,0,0-0.1,0
		c-0.2-0.1-0.4-0.2-0.7-0.3c-0.3-0.1-0.6-0.1-0.9-0.1c-0.6,0-1.1,0.2-1.5,0.5c-0.4,0.3-0.6,0.7-0.6,1.2c0,0.2,0,0.3,0,0.5
		c0,0.1,0.1,0.3,0.2,0.4c0.1,0.2,0.2,0.3,0.4,0.4c0.2,0.1,0.4,0.3,0.7,0.4c0.3,0.1,0.6,0.3,1,0.4c0.1,0,0.1,0,0.3,0.1
		c0.1,0,0.2,0.1,0.3,0.1s0.1,0,0.3,0.1c0.1,0,0.2,0.1,0.3,0.1c0.1,0,0.1,0.1,0.2,0.1c0.1,0,0.2,0.1,0.2,0.1s0.1,0.1,0.1,0.1
		s0.1,0.1,0.1,0.2c0,0.1,0,0.1,0,0.2c0,0.5-0.4,0.7-1.2,0.7c-1.1,0-2-0.5-2.7-1.6c0-0.1-0.1-0.1-0.1-0.1c0,0-0.1,0-0.1,0l-0.4,0.2
		c-0.1,0-0.1,0.1-0.1,0.1c0,0,0,0.1,0,0.1l1,1.9c0,0.1,0.1,0.1,0.2,0.1h0.4c0,0,0,0,0,0c0.1,0,0.1,0,0.1-0.1c0,0,0-0.1,0-0.1
		c0-0.1,0-0.2,0.1-0.2c0,0,0.1,0,0.1,0c0.4,0.2,0.9,0.3,1.4,0.3c0.7,0,1.3-0.2,1.8-0.5c0.4-0.4,0.7-0.8,0.7-1.4
		C34.3,15,34.3,15,34.3,14.9z"/>
	<path class="st0" d="M20.2,9.1c0.6,0,1.2,0.4,1.4,1c0.1,0.2,0.2,0.3,0.4,0.3c0.2,0,0.3-0.1,0.4-0.3c0.3-0.6,0.8-1,1.4-1
		c0.6,0,1.1,0.3,1.4,0.8c0.1,0.1,0.1,0.3,0.2,0.4c0.1,0.2,0.2,0.4,0.5,0.4c0,0,0,0,0.1,0c0.2,0,0.4-0.2,0.4-0.5l0-0.1
		c0-0.1,0-0.1,0-0.2c0-4.6-3.3-8.2-7.6-8.5V0.5c0-0.3-0.2-0.5-0.5-0.5s-0.5,0.2-0.5,0.5v0.9c-4.3,0.3-7.6,4-7.6,8.5c0,0,0,0.2,0,0.2
		c0,0.2,0.2,0.4,0.4,0.5c0,0,0,0,0.1,0c0.2,0,0.4-0.1,0.4-0.3c0-0.1,0.1-0.3,0.2-0.4c0.3-0.5,0.8-0.8,1.3-0.8c0.6,0,1.2,0.4,1.4,1
		c0.1,0.2,0.2,0.3,0.4,0.3c0.2,0,0.3-0.1,0.4-0.3c0.3-0.6,0.8-1,1.4-1c0.6,0,0.8,0.3,1.1,1v3.9l0,1.2c0,0,0,0,0,0
		c0,0.3-0.1,0.6-0.2,0.8c-0.1,0.2-0.4,0.3-0.6,0.3h0c-0.1,0-0.2,0.1-0.2,0.2v0.4c0,0.1,0,0.1,0.1,0.1s0.1,0,0.1,0H20
		c0.1,0,0.1,0,0.1,0c0,0,0.1-0.1,0.1-0.1v-0.4c0-0.1-0.1-0.2-0.2-0.2h0c-0.3,0-0.5-0.1-0.6-0.3c-0.1-0.2-0.2-0.5-0.2-0.8v-4.5
		c0,0,0,0,0,0h0V10C19.4,9.5,19.6,9.1,20.2,9.1z M16.4,8.1c-0.3,0-0.5,0-0.8,0.1c-0.2,0.1-0.4,0.2-0.6,0.3L14.6,9L14,8.5
		c-0.4-0.3-0.9-0.4-1.4-0.4c-0.5,0-0.9,0.1-1.3,0.4c0,0-0.1,0-0.1,0c0.1-0.3,0.1-0.6,0.2-0.9c0.8-3,3.5-5.3,6.8-5.3
		c3.2,0,5.9,2.2,6.7,5.1c0.1,0.3,0.2,0.7,0.2,1.1c-0.4-0.3-0.9-0.4-1.3-0.4c-0.1,0-0.2,0-0.2,0c-0.6,0-1.2,0.4-1.2,0.4l-0.2,0.2
		L22.2,9l-0.5-0.5c-0.4-0.3-0.9-0.5-1.4-0.5c-0.4,0-0.9,0.1-1.2,0.3l-0.2,0.1L18.3,9l-0.5-0.4C17.4,8.2,16.9,8.1,16.4,8.1z"/>
</g>
</svg>
