<?xml version="1.0" encoding="utf-8"?>
<!-- Generator: Adobe Illustrator 24.0.2, SVG Export Plug-In . SVG Version: 6.00 Build 0)  -->
<svg version="1.1" id="Capa_1" xmlns="http://www.w3.org/2000/svg" xmlns:xlink="http://www.w3.org/1999/xlink" x="0px" y="0px"
	 viewBox="0 0 16.1 31.1" style="enable-background:new 0 0 16.1 31.1;" xml:space="preserve">
<style type="text/css">
	.st0{fill:#323243;}
</style>
<g id="Layer_2">
	<g id="Layer_1-2">
		<path class="st0" d="M1.4,0l14.5,14.8l0.1,0.1V15c0.1,0.2,0.1,0.4,0,0.6v0.1c0,0.1-0.1,0.1-0.1,0.2L1.4,30.7
			c-0.2,0.4-0.6,0.5-1,0.3c-0.4-0.2-0.5-0.6-0.3-1c0.1-0.1,0.2-0.2,0.3-0.3l0,0l14-14.3L0.4,1.1c-0.2-0.4-0.1-0.8,0.3-1
			C0.9,0,1.2,0,1.4,0L1.4,0z"/>
	</g>
</g>
</svg>
