<?xml version="1.0" encoding="utf-8"?>
<!-- Generator: Adobe Illustrator 24.0.2, SVG Export Plug-In . SVG Version: 6.00 Build 0)  -->
<svg version="1.1" id="Capa_1" xmlns="http://www.w3.org/2000/svg" xmlns:xlink="http://www.w3.org/1999/xlink" x="0px" y="0px"
	 viewBox="0 0 17.8 14" style="enable-background:new 0 0 17.8 14;" xml:space="preserve">
<style type="text/css">
	.st0{fill:#231F20;}
</style>
<g>
	<path class="st0" d="M0.5,8h16.9c0.3,0,0.5-0.4,0.5-1s-0.2-1-0.5-1H0.5C0.2,6,0,6.4,0,7S0.2,8,0.5,8z"/>
	<path class="st0" d="M0.5,14h16.9c0.3,0,0.5-0.4,0.5-1s-0.2-1-0.5-1H0.5C0.2,12,0,12.4,0,13S0.2,14,0.5,14z"/>
	<path class="st0" d="M0.5,2h16.9c0.3,0,0.5-0.4,0.5-1s-0.2-1-0.5-1H0.5C0.2,0,0,0.4,0,1S0.2,2,0.5,2z"/>
</g>
</svg>
