<?xml version="1.0" encoding="utf-8"?>
<!-- Generator: Adobe Illustrator 24.0.2, SVG Export Plug-In . SVG Version: 6.00 Build 0)  -->
<svg version="1.1" id="Capa_1" xmlns="http://www.w3.org/2000/svg" xmlns:xlink="http://www.w3.org/1999/xlink" x="0px" y="0px"
	 viewBox="0 0 14 14" style="enable-background:new 0 0 14 14;" xml:space="preserve">
<style type="text/css">
	.st0{fill:#231F20;}
</style>
<g>
	<path class="st0" d="M13.7,12.5L11,9.8c0.8-1,1.2-2.3,1.2-3.7C12.2,2.7,9.5,0,6.1,0C2.7,0,0,2.7,0,6.1s2.7,6.1,6.1,6.1
		c1.4,0,2.6-0.5,3.7-1.2l2.7,2.7c0.3,0.3,0.9,0.3,1.2,0C14.1,13.4,14.1,12.8,13.7,12.5z M6.1,10.5c-2.4,0-4.4-2-4.4-4.4
		s2-4.4,4.4-4.4c2.4,0,4.4,2,4.4,4.4S8.5,10.5,6.1,10.5z"/>
</g>
</svg>
