<?xml version="1.0" encoding="utf-8"?>
<!-- Generator: Adobe Illustrator 24.0.2, SVG Export Plug-In . SVG Version: 6.00 Build 0)  -->
<svg version="1.1" id="Capa_1" xmlns="http://www.w3.org/2000/svg" xmlns:xlink="http://www.w3.org/1999/xlink" x="0px" y="0px"
	 viewBox="0 0 10.5 14" style="enable-background:new 0 0 10.5 14;" xml:space="preserve">
<style type="text/css">
	.st0{fill:#231F20;}
</style>
<path class="st0" d="M10.1,3.9H7.9V2.6C7.9,1.2,6.7,0,5.3,0C3.8,0,2.6,1.2,2.6,2.6v1.3H0.4C0.2,3.9,0,4.1,0,4.4v0.4v8.3
	C0,13.6,0.4,14,0.9,14h8.8c0.5,0,0.9-0.4,0.9-0.9V4.8V4.4C10.5,4.1,10.3,3.9,10.1,3.9z M3.5,2.6c0-1,0.8-1.8,1.8-1.8S7,1.7,7,2.6
	v1.3H3.5V2.6z M9.6,12.7c0,0.2-0.2,0.4-0.4,0.4H1.3c-0.2,0-0.4-0.2-0.4-0.4v-0.4h8.8V12.7z M9.6,11.4H0.9V4.8h1.8v0.4
	c0,0.2,0.2,0.4,0.4,0.4c0.2,0,0.4-0.2,0.4-0.4V4.8H7v0.4c0,0.2,0.2,0.4,0.4,0.4c0.2,0,0.4-0.2,0.4-0.4V4.8h1.8V11.4z"/>
</svg>
